<svg width="120" height="120" viewBox="0 0 120 120" fill="none" xmlns="http://www.w3.org/2000/svg">
<path d="M62.52 0C89.64 0 103.2 0 111.6 8.4C120 16.8 120 30.36 120 57.48V62.52C120 89.64 120 103.2 111.6 111.6C103.2 120 89.64 120 62.52 120H57.48C30.36 120 16.8 120 8.4 111.6C0 103.2 0 89.64 0 62.52V57.48C0 30.36 0 16.8 8.4 8.4C16.8 0 30.36 0 57.48 0H62.52Z" fill="#0077FF"/>
<path d="M0.36 33.72C0 40.2 0 48 0 57.48V62.52C0 69.72 0 75.84 0.12 81.24C15.84 88.92 36.96 93.6 60 93.6C83.04 93.6 104.16 88.92 119.88 81.24C120 75.84 120 69.6 120 62.52V57.48C120 48 120 40.2 119.64 33.6H0.36V33.72Z" fill="#0009B4"/>
<path d="M83.4 72C89.696 72 94.8 66.896 94.8 60.5999C94.8 54.3039 89.696 49.2 83.4 49.2C77.104 49.2 72 54.3039 72 60.5999C72 66.896 77.104 72 83.4 72Z" stroke="white" stroke-width="11.9897"/>
<path d="M50.4002 74.4003L24 48" stroke="white" stroke-width="11.9897"/>
<path d="M50.4002 47.9999L24 74.4001" stroke="white" stroke-width="11.9897"/>
</svg>